<?xml version="1.0" standalone="no"?>
<!DOCTYPE svg PUBLIC "-//W3C//DTD SVG 1.1//EN" "http://www.w3.org/Graphics/SVG/1.1/DTD/svg11.dtd">
<svg xmlns="http://www.w3.org/2000/svg">
<defs >
<font id="Sen" horiz-adv-x="576" ><font-face
    font-family="Sen"
    units-per-em="1024"
    panose-1="0 0 0 0 0 0 0 0 0 0"
    ascent="962"
    descent="-270"
    alphabetic="0" />
<glyph unicode=" " glyph-name="space" horiz-adv-x="300" />
<glyph unicode="!" glyph-name="exclam" horiz-adv-x="300" d="M191 670V220H109V670H191ZM150 122Q179 122 199 102T220 52Q220 24 200 3T150 -18Q121 -18 101 3T80 52Q80 81 100 101T150 122Z" />
<glyph unicode="&quot;" glyph-name="quotedbl" horiz-adv-x="442" d="M362 695V441H280V695H362ZM162 695V441H80V695H162Z" />
<glyph unicode="#" glyph-name="numbersign" horiz-adv-x="770" d="M620 240V170H492L440 0H372L424 170H260L208 0H140L192 170H80V240H213L264 408H150V488H288L343 670H414L358 488H520L575 670H646L590 488H690V408H565L514 240H620ZM282 240H445L496 408H333L282
240Z" />
<glyph unicode="$" glyph-name="dollar" horiz-adv-x="550" d="M233 710H305V648Q349 644 382 630T439 600V516Q414 535 373 552T288 569Q261 569 232 559T182 529T162 475Q162 438 188 419T252 383L345 345Q409 319 440 284T472 190Q472 147 450 112T390 55T305
24V-60H233V23Q190 28 153 44T88 80V165Q123 140 169 121T274 101Q320 101 354 124T388 187Q388 210 374 226T340 255T301 274L190 320Q124 348 101 387T77 478Q77 519 98 553T154 612T233 644V710Z" />
<glyph unicode="%" glyph-name="percent" horiz-adv-x="824" d="M588 690L644 663L233 -20L180 7L588 690ZM192 685Q237 685 271 665T325 609T344 532Q344 490 325 455T272 400T192 379Q147 379 113 399T59 455T40 532Q40 574 59 609T112 664T192 685ZM193 617Q158
617 134 592T110 532Q110 497 134 472T193 446Q228 446 251 471T275 532Q275 567 252 592T193 617ZM632 291Q677 291 711 271T765 215T784 138Q784 96 765 61T712 6T632 -15Q587 -15 553 5T499 61T480 138Q480 180 499 215T552 270T632 291ZM633 223Q598 223 574
198T550 138Q550 103 574 78T633 52Q668 52 691 77T715 138Q715 173 692 198T633 223Z" />
<glyph unicode="&amp;" glyph-name="ampersand" horiz-adv-x="709" d="M316 685Q361 685 403 666T473 611T501 522Q501 482 484 452T439 399T377 354Q364 346 348 337Q376 305 404 274T462 210Q481 239 501 272T546 350H644Q611 292 580 241T520 148Q553 112 587
76T659 0H548Q509 39 469 81Q431 38 383 12T270 -15Q204 -15 155 9T78 74T50 170Q50 219 73 253T135 313T215 358Q182 392 158 429T133 516Q133 573 159 610T228 666T316 685ZM232 512Q232 481 250 453T294 397Q339 420 370 449T402 522Q402 548 389 564T355 589T316
597Q286 597 259 578T232 512ZM149 170Q149 124 184 99T273 73Q326 73 356 93T411 142Q377 180 343 218T272 298Q222 273 186 244T149 170Z" />
<glyph unicode="&apos;" glyph-name="quotesingle" horiz-adv-x="242" d="M162 670V416H80V670H162Z" />
<glyph unicode="(" glyph-name="parenleft" horiz-adv-x="363" d="M323 690Q293 656 266 604T217 490T184 365T172 245Q172 185 184 121T217 -3T265 -115T323 -200H232Q191 -157 154 -88T94 68T70 245Q70 310 83 375T120 500T172 609T232 690H323Z" />
<glyph unicode=")" glyph-name="parenright" horiz-adv-x="393" d="M70 690Q100 656 127 604T176 490T209 365T221 245Q221 185 209 121T176 -3T128 -115T70 -200H161Q202 -157 239 -88T299 68T323 245Q323 310 310 375T273 500T221 609T161 690H70Z" />
<glyph unicode="*" glyph-name="asterisk" horiz-adv-x="494" d="M283 705L277 583L381 627L404 559L296 528L372 433L314 391L247 494L180 391L122 433L198 528L90 559L113 627L217 583L211 705H283Z" />
<glyph unicode="+" glyph-name="plus" horiz-adv-x="550" d="M470 358V268H320V117H230V268H80V358H230V508H320V358H470Z" />
<glyph unicode="," glyph-name="comma" horiz-adv-x="282" d="M120 118L202 90L112 -177L50 -161L120 118Z" />
<glyph unicode="-" glyph-name="hyphen" horiz-adv-x="421" d="M361 298V208H60V298H361Z" />
<glyph unicode="." glyph-name="period" horiz-adv-x="300" d="M150 122Q179 122 199 102T220 52Q220 24 200 3T150 -18Q121 -18 101 3T80 52Q80 81 100 101T150 122Z" />
<glyph unicode="/" glyph-name="slash" horiz-adv-x="414" d="M374 705L108 -200H40L303 705H374Z" />
<glyph unicode="0" glyph-name="zero" horiz-adv-x="550" d="M278 685Q343 685 390 655T469 575T515 462T531 335Q531 271 516 209T469 96T391 15T278 -15Q214 -15 166 15T87 95T41 208T25 335Q25 400 40 462T87 574T166 655T278 685ZM278 597Q237 597 206 575T153
515T121 431T110 335Q110 286 121 240T153 156T205 96T278 73Q319 73 350 95T403 155T435 239T446 335Q446 384 435 430T403 514T351 574T278 597Z" />
<glyph unicode="1" glyph-name="one" horiz-adv-x="550" d="M471 80V0H108V80H241V516Q211 490 179 480T115 464V550Q173 565 216 599T287 670H331V80H471Z" />
<glyph unicode="2" glyph-name="two" horiz-adv-x="550" d="M256 685Q322 685 372 661T450 593T478 487Q478 422 445 364T352 239T208 83H483V0H63V36Q165 150 239 229T353 366T393 467Q393 532 351 564T248 597Q199 597 156 573T83 522V616Q109 640 154 662T256 685Z" />
<glyph unicode="3" glyph-name="three" horiz-adv-x="550" d="M246 685Q312 685 363 660T444 592T474 492Q474 447 452 416T398 367T341 342Q367 335 398 315T451 261T474 183Q474 127 446 82T366 11T249 -15Q190 -15 144 5T71 49V148Q94 132 119 113T176 80T251
66Q311 66 350 98T389 188Q389 221 369 247T316 288T246 303H186V383H246Q309 383 349 410T389 487Q389 522 369 548T316 589T243 604Q191 604 156 582T91 530V629Q117 653 158 669T246 685Z" />
<glyph unicode="4" glyph-name="four" horiz-adv-x="550" d="M423 670V224H528V148H423V0H333V148H27V181Q84 242 148 317T275 480T390 670H423ZM333 450Q293 388 252 331T167 224H333V450Z" />
<glyph unicode="5" glyph-name="five" horiz-adv-x="550" d="M463 670V587H199V408Q214 414 233 418T284 422Q340 422 386 395T461 322T490 217Q490 149 458 97T370 15T243 -15Q207 -15 172 -5T109 22T63 54V153Q82 138 109 118T170 82T243 66Q288 66 325 84T383
134T405 209Q405 250 382 279T321 325T238 342Q200 342 169 333T109 312V670H463Z" />
<glyph unicode="6" glyph-name="six" horiz-adv-x="550" d="M441 670Q410 641 368 603T283 522T206 436T157 354Q182 385 220 410T305 435Q371 435 418 406T490 329T516 227Q516 184 501 141T456 63T384 6T289 -15Q222 -15 168 16T81 105T48 243Q48 297 68 349T119
450T187 541T255 616T308 670H441ZM284 354Q247 354 212 337T155 289T133 217Q133 172 155 138T212 85T284 66Q322 66 355 85T410 138T431 217Q431 258 410 288T356 336T284 354Z" />
<glyph unicode="7" glyph-name="seven" horiz-adv-x="550" d="M514 670V628Q451 538 403 460T321 308T270 159T252 0H149Q149 87 171 163T230 310T314 449T407 587H51V670H514Z" />
<glyph unicode="8" glyph-name="eight" horiz-adv-x="550" d="M275 685Q331 685 376 663T449 600T476 507Q476 449 448 413T379 353Q426 331 461 288T496 187Q496 131 469 85T391 12T275 -15Q209 -15 160 12T82 85T54 187Q54 244 89 287T171 353Q131 376 103 412T74
507Q74 560 101 600T173 662T275 685ZM275 604Q247 604 220 590T176 552T159 497Q159 466 176 444T220 409T275 396Q304 396 330 408T374 443T391 497Q391 528 374 552T331 590T275 604ZM275 312Q242 312 211 296T159 253T139 192Q139 159 157 130T206 84T275 66Q314
66 344 83T393 130T411 192Q411 226 391 253T340 296T275 312Z" />
<glyph unicode="9" glyph-name="nine" horiz-adv-x="550" d="M121 0Q152 29 194 67T279 148T356 234T405 316Q380 285 342 260T257 235Q191 235 144 264T72 341T46 443Q46 486 61 529T106 607T178 664T273 685Q340 685 394 654T481 565T514 427Q514 373 494 321T443
220T375 129T307 54T254 0H121ZM278 316Q315 316 350 333T407 381T429 453Q429 498 407 532T350 585T278 604Q240 604 207 585T152 532T131 453Q131 412 152 382T206 334T278 316Z" />
<glyph unicode=":" glyph-name="colon" horiz-adv-x="300" d="M150 522Q179 522 199 502T220 452Q220 424 200 403T150 382Q121 382 101 403T80 452Q80 481 100 501T150 522ZM150 122Q179 122 199 102T220 52Q220 24 200 3T150 -18Q121 -18 101 3T80 52Q80 81
100 101T150 122Z" />
<glyph unicode=";" glyph-name="semicolon" horiz-adv-x="352" d="M191 522Q220 522 240 502T261 452Q261 424 241 403T191 382Q162 382 142 403T121 452Q121 481 141 501T191 522ZM150 118L232 90L142 -177L80 -161L150 118Z" />
<glyph unicode="&lt;" glyph-name="less" horiz-adv-x="500" d="M460 592V494L154 303L460 98V0L60 276V327L460 592Z" />
<glyph unicode="=" glyph-name="equal" horiz-adv-x="551" d="M471 448V358H80V448H471ZM471 263V173H80V263H471Z" />
<glyph unicode="&gt;" glyph-name="greater" horiz-adv-x="500" d="M40 592V494L346 303L40 98V0L440 276V327L40 592Z" />
<glyph unicode="?" glyph-name="question" horiz-adv-x="560" d="M265 685Q325 685 374 660T451 591T480 490Q480 453 462 424T416 370T361 325T316 283T299 239L300 218H203V258Q203 280 220 300T264 341T316 383T360 428T378 477Q378 526 347 558T255 590Q195
590 156 567T80 497V606Q107 639 157 662T265 685ZM256 122Q285 122 305 102T326 52Q326 24 306 3T256 -18Q227 -18 207 3T186 52Q186 81 206 101T256 122Z" />
<glyph unicode="@" glyph-name="at" horiz-adv-x="824" d="M412 612Q485 612 550 589T665 523T745 416T774 273Q774 214 748 165T677 86T578 56Q535 56 507 76T471 129Q417 56 335 56Q288 56 255 81T207 150T201 243Q217 333 275 386T415 439Q447 439 475 425T522
383L531 432H603L555 224Q544 176 547 148T592 120Q616 120 638 137T676 188T691 273Q691 357 654 415T554 505T412 536Q334 536 271 498T171 393T133 243Q133 160 168 98T266 2T412 -32Q461 -32 499 -25T572 -2T648 35L684 -26Q616 -63 551 -85T412 -107Q310 -107
228 -64T98 58T50 243Q50 323 79 390T158 507T274 584T412 612ZM414 365Q356 365 323 331T278 243Q268 191 288 158T356 125Q406 125 442 152T491 237L510 319Q470 365 414 365Z" />
<glyph unicode="A" glyph-name="A" horiz-adv-x="691" d="M368 670L681 0H573L503 160H189L118 0H10L323 670H368ZM347 518L226 245H466L347 518Z" />
<glyph unicode="B" glyph-name="B" horiz-adv-x="685" d="M346 686Q420 686 474 662T559 595T589 498Q589 449 561 409T491 348Q521 342 550 323T598 271T618 189Q618 133 586 88T495 17T354 -10Q292 -10 225 -3T110 15V661Q162 673 223 679T346 686ZM340 601Q298
601 265 598T200 589V379H357Q425 379 461 413T497 494Q497 530 475 553T418 589T340 601ZM200 87Q236 80 280 78T352 75Q427 75 476 106T526 189Q526 244 478 271T359 299H200V87Z" />
<glyph unicode="C" glyph-name="C" horiz-adv-x="674" d="M403 685Q476 685 522 665T604 613V514Q582 530 555 549T491 582T403 597Q328 597 269 563T176 470T142 335Q142 260 176 201T269 108T403 73Q480 73 534 98T624 151V61Q589 30 533 8T403 -15Q327 -15
263 12T151 88T77 199T50 335Q50 407 76 470T151 582T263 657T403 685Z" />
<glyph unicode="D" glyph-name="D" horiz-adv-x="759" d="M356 686Q469 686 547 640T667 516T709 338Q709 239 668 161T548 36T356 -10Q287 -10 229 -3T110 15V661Q171 672 229 679T356 686ZM356 601Q320 601 279 599T200 591V85Q238 81 279 78T356 75Q437 75
495 109T585 203T617 338Q617 413 586 472T496 566T356 601Z" />
<glyph unicode="E" glyph-name="E" horiz-adv-x="649" d="M526 386V301H200V85H569V0H110V670H569V585H200V386H526Z" />
<glyph unicode="F" glyph-name="F" horiz-adv-x="635" d="M488 361V276H200V0H110V670H548V585H200V361H488Z" />
<glyph unicode="G" glyph-name="G" horiz-adv-x="701" d="M366 366H661V91Q637 65 599 41T512 1T403 -15Q327 -15 263 12T151 88T77 199T50 335Q50 407 76 470T151 582T263 657T403 685Q476 685 522 665T604 613V514Q582 530 555 549T491 582T403 597Q328 597
269 563T176 470T142 335Q142 260 176 201T269 108T403 73Q454 73 485 83T534 107T563 130L564 286H366V366Z" />
<glyph unicode="H" glyph-name="H" horiz-adv-x="782" d="M200 670V388H582V670H672V0H582V303H200V0H110V670H200Z" />
<glyph unicode="I" glyph-name="I" horiz-adv-x="536" d="M426 85V0H110V85H223V585H110V670H426V585H313V85H426Z" />
<glyph unicode="J" glyph-name="J" horiz-adv-x="315" d="M205 672V34Q205 -51 177 -107T101 -197T-11 -255L-55 -168Q115 -107 115 16V672H205Z" />
<glyph unicode="K" glyph-name="K" horiz-adv-x="672" d="M200 670V318L506 670H632L351 361L662 0H537L286 289L200 195V0H110V670H200Z" />
<glyph unicode="L" glyph-name="L" horiz-adv-x="636" d="M200 670V85H569V0H110V670H200Z" />
<glyph unicode="M" glyph-name="M" horiz-adv-x="843" d="M733 670V0H643V485L436 264H412L200 485V0H110V670H138L424 363L705 670H733Z" />
<glyph unicode="N" glyph-name="N" horiz-adv-x="779" d="M669 670V0H635L200 479V0H110V670H144L579 185V670H669Z" />
<glyph unicode="O" glyph-name="O" horiz-adv-x="806" d="M403 685Q479 685 543 658T655 582T729 471T756 335Q756 263 730 200T655 88T543 13T403 -15Q327 -15 263 12T151 88T77 199T50 335Q50 407 76 470T151 582T263 657T403 685ZM403 597Q328 597 269 563T176
470T142 335Q142 260 176 201T269 108T403 73Q478 73 537 107T630 201T664 335Q664 410 630 469T537 563T403 597Z" />
<glyph unicode="P" glyph-name="P" horiz-adv-x="660" d="M377 670Q435 670 488 644T575 568T610 449Q610 390 577 340T488 260T362 229Q311 229 269 239T200 262V0H110V670H377ZM200 585V344Q227 333 270 324T359 314Q435 314 476 353T518 449Q518 492 495 522T433
568T352 585H200Z" />
<glyph unicode="Q" glyph-name="Q" horiz-adv-x="831" d="M403 685Q479 685 543 658T655 582T729 471T756 335Q756 256 725 188T637 70T506 -1Q575 -27 645 -45T764 -64V-154Q709 -154 645 -136T518 -85T403 -15Q327 -15 263 12T151 88T77 199T50 335Q50 407 76
470T151 582T263 657T403 685ZM403 597Q328 597 269 563T176 470T142 335Q142 260 176 201T269 108T403 73Q478 73 537 107T630 201T664 335Q664 410 630 469T537 563T403 597Z" />
<glyph unicode="R" glyph-name="R" horiz-adv-x="636" d="M367 670Q425 670 478 649T565 583T600 469Q600 407 565 364T475 300T362 278Q344 278 314 280L626 0H488L200 280V0H110V670H367ZM200 585V370Q233 361 272 356T349 351Q425 351 466 383T508 469Q508
525 463 555T352 585H200Z" />
<glyph unicode="S" glyph-name="S" horiz-adv-x="523" d="M272 680Q331 680 369 663T437 627V534Q409 555 369 573T282 592Q252 592 220 582T165 548T143 489Q143 449 172 428T242 388L334 346Q403 315 438 277T473 176Q473 121 441 80T357 14T243 -10Q185 -10
136 10T51 55V148Q90 121 140 100T255 78Q305 78 343 103T381 172Q381 197 366 215T328 246T285 268L174 318Q102 350 76 393T50 492Q50 545 80 587T162 655T272 680Z" />
<glyph unicode="T" glyph-name="T" horiz-adv-x="611" d="M582 670V585H351V3H261V585H30V670H582Z" />
<glyph unicode="U" glyph-name="U" horiz-adv-x="752" d="M652 672V265Q652 178 616 116T517 20T376 -13Q298 -13 236 20T137 115T100 265V672H190V268Q190 200 215 158T283 98T376 79Q426 80 468 98T536 158T562 268V672H652Z" />
<glyph unicode="V" glyph-name="V" horiz-adv-x="691" d="M681 670L368 0H323L10 670H118L344 152L573 670H681Z" />
<glyph unicode="W" glyph-name="W" horiz-adv-x="944" d="M934 670L699 0H648L468 507L286 0H235L10 670H108L265 172L442 670L500 669L672 172L836 670H934Z" />
<glyph unicode="X" glyph-name="X" horiz-adv-x="644" d="M634 670L371 325L634 0H514L312 262L120 0H10L261 335L10 670H130L320 397L514 670H634Z" />
<glyph unicode="Y" glyph-name="Y" horiz-adv-x="631" d="M621 670L364 275V0H267V262L10 670H118L314 354L513 670H621Z" />
<glyph unicode="Z" glyph-name="Z" horiz-adv-x="672" d="M605 670V634L201 85H605V0H67V36L460 585H90V670H605Z" />
<glyph unicode="[" glyph-name="bracketleft" horiz-adv-x="379" d="M339 690V600H177V-110H339V-200H80V690H339Z" />
<glyph unicode="\" glyph-name="backslash" horiz-adv-x="364" d="M61 670L374 -200H306L-10 670H61Z" />
<glyph unicode="]" glyph-name="bracketright" horiz-adv-x="379" d="M40 690V600H202V-110H40V-200H299V690H40Z" />
<glyph unicode="^" glyph-name="asciicircum" horiz-adv-x="603" d="M322 670L543 310H455L295 578L148 310H60L271 670H322Z" />
<glyph unicode="_" glyph-name="underscore" horiz-adv-x="490" d="M490 -21V-111H0V-21H490Z" />
<glyph unicode="`" glyph-name="grave" horiz-adv-x="314" d="M19 720H133L243 585H161L19 720Z" />
<glyph unicode="a" glyph-name="a" horiz-adv-x="622" d="M291 510Q334 510 378 490T455 433V500H537V0H455V85Q429 45 385 15T283 -15Q219 -15 166 17T82 108T50 242Q50 325 81 385T168 477T291 510ZM306 430Q252 430 214 403T156 334T135 242Q135 194 155 154T211
89T296 65Q342 65 378 89T435 155T455 251L454 347Q423 386 388 408T306 430Z" />
<glyph unicode="b" glyph-name="b" horiz-adv-x="622" d="M331 510Q400 510 454 478T540 385T572 242Q572 166 541 108T457 18T339 -15Q282 -15 238 15T167 85V0H85V720H167V433Q199 469 243 489T331 510ZM316 429Q270 429 235 408T168 347L167 251Q167 198 187
156T244 90T326 66Q375 66 411 90T467 154T487 242Q487 291 467 333T408 402T316 429Z" />
<glyph unicode="c" glyph-name="c" horiz-adv-x="511" d="M311 510Q366 510 406 493T461 461V378Q433 399 397 414T311 430Q258 430 218 405T157 338T135 247Q135 199 156 158T218 91T311 65Q361 65 397 80T461 117V34Q446 19 406 2T311 -15Q235 -15 176 21T84
116T50 247Q50 318 83 378T176 474T311 510Z" />
<glyph unicode="d" glyph-name="d" horiz-adv-x="622" d="M537 720V0H455V85Q429 45 385 15T283 -15Q219 -15 166 17T82 108T50 242Q50 325 81 385T168 477T291 510Q334 510 378 490T455 433V720H537ZM306 428Q252 428 214 402T156 333T135 242Q135 194 155 154T211
89T296 65Q342 65 378 89T435 155T455 251L454 347Q423 386 388 407T306 428Z" />
<glyph unicode="e" glyph-name="e" horiz-adv-x="571" d="M291 510Q368 510 419 478T495 391T521 267V218H137Q143 176 166 141T226 86T311 65Q365 65 412 92T491 153L490 64Q476 47 449 29T386 -2T311 -15Q235 -15 176 21T84 116T50 247Q50 318 81 378T166 474T291
510ZM291 430Q229 430 189 389T139 288H440Q435 337 413 368T358 414T291 430Z" />
<glyph unicode="f" glyph-name="f" horiz-adv-x="368" d="M344 500V423H198V0H116V423H37V500H116V564Q116 623 139 660T198 716T271 735Q322 735 354 708V636Q339 646 318 652T276 657Q239 656 219 634T198 555V500H344Z" />
<glyph unicode="g" glyph-name="g" horiz-adv-x="622" d="M291 510Q334 510 378 490T455 433V500H537V10Q537 -79 501 -138T405 -226T274 -255Q228 -255 196 -245T140 -219T98 -189V-101Q113 -112 137 -129T196 -161T274 -175Q323 -175 364 -157T430 -104T455
-20V85Q429 45 385 15T283 -15Q219 -15 166 17T82 108T50 242Q50 325 81 385T168 477T291 510ZM306 429Q252 429 214 403T156 334T135 242Q135 194 155 154T211 90T296 66Q342 66 378 90T435 156T455 251L454 347Q423 386 388 407T306 429Z" />
<glyph unicode="h" glyph-name="h" horiz-adv-x="585" d="M330 510Q381 510 423 488T490 420T515 305V0H433L432 297Q432 362 404 396T316 430Q276 430 237 401T167 332V0H85V720H167V421Q183 441 208 461T264 496T330 510Z" />
<glyph unicode="i" glyph-name="i" horiz-adv-x="308" d="M165 740Q194 740 213 720T233 672Q233 646 214 625T165 604Q136 604 117 625T97 672Q97 699 116 719T165 740ZM216 500V0H134V423H55V500H216Z" />
<glyph unicode="j" glyph-name="j" horiz-adv-x="289" d="M151 740Q180 740 199 720T219 672Q219 646 200 625T151 604Q122 604 103 625T83 672Q83 699 102 719T151 740ZM204 500V2Q204 -99 158 -161T32 -255L-5 -181Q61 -149 91 -110T122 -10V423H43V500H204Z" />
<glyph unicode="k" glyph-name="k" horiz-adv-x="545" d="M527 500L295 282L540 0H436L238 228L167 162V0H85V720H167V256L416 500H527Z" />
<glyph unicode="l" glyph-name="l" horiz-adv-x="252" d="M167 720V0H85V720H167Z" />
<glyph unicode="m" glyph-name="m" horiz-adv-x="927" d="M167 500V436Q191 463 228 486T317 510Q371 510 418 485T490 408Q525 450 566 480T662 510Q713 510 757 488T829 420T857 305V0H775L774 297Q774 362 741 396T648 430Q605 430 573 403T512 340V0H430L429
297Q429 362 396 396T303 430Q262 430 229 406T167 348V0H85V500H167Z" />
<glyph unicode="n" glyph-name="n" horiz-adv-x="585" d="M167 500V421Q183 441 208 461T264 496T330 510Q381 510 423 488T490 420T515 305V0H433L432 297Q432 362 404 396T316 430Q276 430 237 401T167 332V0H85V500H167Z" />
<glyph unicode="o" glyph-name="o" horiz-adv-x="622" d="M311 510Q387 510 446 474T538 378T572 247Q572 176 539 117T446 21T311 -15Q235 -15 176 21T84 116T50 247Q50 318 83 378T176 474T311 510ZM311 430Q258 430 218 405T157 338T135 247Q135 199 156 158T218
91T311 65Q365 65 404 90T465 157T487 247Q487 296 466 337T405 404T311 430Z" />
<glyph unicode="p" glyph-name="p" horiz-adv-x="622" d="M339 510Q404 510 456 479T540 391T572 258Q572 176 541 115T455 19T331 -15Q288 -15 244 8T167 67V-240H85V500H167V415Q193 455 237 482T339 510ZM326 430Q281 430 245 407T188 344T167 249L168 153Q200
114 235 90T316 65Q370 65 408 93T466 165T487 258Q487 307 467 345T411 407T326 430Z" />
<glyph unicode="q" glyph-name="q" horiz-adv-x="622" d="M291 510Q334 510 378 490T455 433V500H537V-240H455V85Q429 45 385 15T283 -15Q219 -15 166 17T82 108T50 242Q50 325 81 385T168 477T291 510ZM306 429Q252 429 214 403T156 334T135 242Q135 194 155
154T211 90T296 66Q342 66 378 90T435 156T455 251L454 347Q423 386 388 407T306 429Z" />
<glyph unicode="r" glyph-name="r" horiz-adv-x="393" d="M167 500V400Q196 450 237 480T321 510Q350 510 373 500V405Q341 424 309 424Q258 424 227 388T167 302V0H85V500H167Z" />
<glyph unicode="s" glyph-name="s" horiz-adv-x="428" d="M234 510Q278 510 316 498T371 472V384Q350 400 314 415T240 430Q193 430 170 408T146 362Q146 343 159 324T207 292L291 262Q340 245 364 213T388 138Q388 96 365 61T300 6T204 -15Q175 -15 144 -8T87
10T50 29V117Q64 107 89 95T144 74T198 65Q245 65 272 86T300 138Q300 162 282 176T228 203L154 230Q96 252 77 285T58 362Q58 426 106 468T234 510Z" />
<glyph unicode="t" glyph-name="t" horiz-adv-x="433" d="M223 644V500H369V423H223V130Q223 99 239 81T288 63Q318 63 338 70T373 87V20Q353 4 331 -5T270 -15Q206 -15 174 23T141 126V423H45V447Q94 469 127 519T185 644H223Z" />
<glyph unicode="u" glyph-name="u" horiz-adv-x="564" d="M494 500V204Q494 138 466 90T390 16T282 -10Q222 -10 174 16T98 90T70 204V500H155V204Q155 139 193 105T282 70Q332 70 370 104T409 204V500H494Z" />
<glyph unicode="v" glyph-name="v" horiz-adv-x="541" d="M526 500L291 0H240L15 500H113L264 132L428 500H526Z" />
<glyph unicode="w" glyph-name="w" horiz-adv-x="756" d="M741 500L566 0H515L378 353L241 0H190L15 500H113L224 149L355 500H401L532 149L643 500H741Z" />
<glyph unicode="x" glyph-name="x" horiz-adv-x="553" d="M535 500L328 260L538 0H432L277 207L121 0H15L225 260L18 500H124L277 320L429 500H535Z" />
<glyph unicode="y" glyph-name="y" horiz-adv-x="571" d="M113 500L288 132L458 500H556L188 -240H93L236 30L15 500H113Z" />
<glyph unicode="z" glyph-name="z" horiz-adv-x="549" d="M484 500V473L183 77H494V0H55V27L346 423H75V500H484Z" />
<glyph unicode="{" glyph-name="braceleft" horiz-adv-x="434" d="M394 690V600H350Q307 600 286 583T259 532T252 445V340Q252 309 234 285T187 245Q216 230 234 206T252 150V45Q252 -7 258 -41T286 -93T350 -110H394V-200H330Q278 -200 239 -176T177 -110T155
-18V118Q155 163 141 181T80 200V290Q127 290 141 308T155 372V508Q155 559 177 600T238 665T330 690H394Z" />
<glyph unicode="|" glyph-name="bar" horiz-adv-x="230" d="M150 705V-200H80V705H150Z" />
<glyph unicode="}" glyph-name="braceright" horiz-adv-x="434" d="M40 690V600H84Q127 600 148 583T175 532T182 445V340Q182 309 200 285T247 245Q218 230 200 206T182 150V45Q182 -7 176 -41T148 -93T84 -110H40V-200H104Q156 -200 195 -176T257 -110T279 -18V118Q279
163 293 181T354 200V290Q307 290 293 308T279 372V508Q279 559 257 600T196 665T104 690H40Z" />
<glyph unicode="~" glyph-name="asciitilde" horiz-adv-x="524" d="M464 416Q464 364 429 328T338 291Q305 291 284 300T248 322T219 343T186 353Q165 353 154 337T142 297H60Q60 350 95 386T186 422Q219 422 240 413T276 391T305 370T338 360Q360 360 371 377T382
416H464Z" />
<glyph unicode="&#xa0;" glyph-name="uni00A0" horiz-adv-x="300" />
<glyph unicode="&#xa1;" glyph-name="exclamdown" horiz-adv-x="300" d="M191 -184V266H109V-184H191ZM150 364Q179 364 199 384T220 434Q220 462 200 483T150 504Q121 504 101 483T80 434Q80 405 100 385T150 364Z" />
<glyph unicode="&#xa2;" glyph-name="cent" horiz-adv-x="511" d="M325 580V510Q375 507 411 491T461 461V378Q435 398 403 412T325 430V65Q370 68 402 82T461 117V34Q447 20 411 4T325 -15V-80H253V-9Q193 4 147 41T76 132T50 247Q50 309 75 362T147 453T253
504V580H325ZM135 247Q135 188 166 140T253 74V421Q198 402 167 354T135 247Z" />
<glyph unicode="&#xa3;" glyph-name="sterling" horiz-adv-x="513" d="M409 378V298H253V263Q253 208 237 164T192 90H481V0H90V70Q119 80 137 112T163 185T171 263V298H92V378H171V459Q171 533 200 582T276 655T376 680Q417 680 450 665T499 633V553Q477 573
442 588T371 602Q342 602 315 586T270 536T253 450V378H409Z" />
<glyph unicode="&#xa4;" glyph-name="currency" horiz-adv-x="542" d="M271 436Q326 436 375 406L441 470L489 419L427 357Q443 335 452 309T462 252Q462 222 453 196T428 147L492 85L438 34L374 98Q326 68 271 68Q216 68 168 98L104 34L50 85L115 147Q98 169
89 195T80 252Q80 282 89 308T115 357L53 419L101 470L167 406Q216 436 271 436ZM271 362Q225 362 191 333T156 252Q156 200 190 171T271 142Q318 142 352 171T386 252Q386 304 352 333T271 362Z" />
<glyph unicode="&#xa5;" glyph-name="yen" horiz-adv-x="631" d="M527 213V143H364V0H267V143H105V213H267V262L263 268H105V338H219L10 670H118L314 354L513 670H621L405 338H527V268H364V213H527Z" />
<glyph unicode="&#xa6;" glyph-name="brokenbar" horiz-adv-x="230" d="M150 705V289H80V705H150ZM150 216V-200H80V216H150Z" />
<glyph unicode="&#xa7;" glyph-name="section" horiz-adv-x="523" d="M473 -64Q473 -118 441 -160T357 -226T243 -250Q185 -250 136 -230T51 -185V-92Q90 -119 140 -140T255 -162Q305 -162 343 -137T381 -68Q381 -43 366 -25T328 6T285 28L174 78Q102 110 76 153T50
252Q50 285 62 314T97 368Q71 394 61 424T50 492Q50 545 80 587T162 655T272 680Q331 680 369 663T437 627V534Q409 555 369 573T282 592Q252 592 220 582T165 548T143 489Q143 449 172 428T242 388L334 346Q403 315 438 277T473 176Q473 140 459 110T419 55Q446
33 459 4T473 -64ZM334 106Q338 104 342 102Q360 114 370 131T381 172Q381 197 366 215T328 246T285 268L176 317Q161 305 152 288T143 249Q143 209 172 188T242 148L334 106Z" />
<glyph unicode="&#xa8;" glyph-name="dieresis" horiz-adv-x="496" d="M353 719Q379 719 397 701T416 656Q416 631 398 612T353 593Q327 593 309 612T290 656Q290 682 308 700T353 719ZM399 975Q425 975 443 957T462 912Q462 887 444 868T399 849Q373 849 355
868T336 912Q336 938 354 956T399 975Z" />
<glyph unicode="&#xa9;" glyph-name="copyright" horiz-adv-x="884" d="M442 723Q526 723 597 693T722 609T804 485T834 335Q834 255 805 185T722 62T598 -22T442 -53Q358 -53 287 -23T162 61T80 185T50 335Q50 415 79 485T162 608T286 692T442 723ZM442 649Q350
649 280 609T172 499T133 335Q133 242 171 172T280 61T442 21Q535 21 604 61T712 171T751 335Q751 428 713 498T605 609T442 649ZM462 552Q506 552 538 538T583 512V445Q560 462 531 474T462 487Q418 487 386 467T337 412T319 339Q319 299 336 266T386 212T462
191Q502 191 531 203T583 233V166Q571 153 539 140T462 126Q400 126 352 155T277 232T250 339Q250 396 277 444T352 522T462 552Z" />
<glyph unicode="&#xaa;" glyph-name="ordfeminine" horiz-adv-x="391" d="M194 676Q249 676 291 631V670H351V373H291V423Q276 400 250 382T189 364Q123 364 82 406T40 517Q40 591 83 633T194 676ZM202 618Q155 618 128 589T101 517Q101 474 127 448T196 421Q237
421 264 448T291 522V580Q272 603 251 610T202 618Z" />
<glyph unicode="&#xab;" glyph-name="guillemotleft" horiz-adv-x="655" d="M315 32L80 227V265L315 468V363L175 246L315 137V32ZM555 32L320 227V265L555 468V363L415 246L555 137V32Z" />
<glyph unicode="&#xac;" glyph-name="logicalnot" horiz-adv-x="600" d="M471 358V130H384V268H80V358H471Z" />
<glyph unicode="&#xad;" glyph-name="uni00AD" horiz-adv-x="421" d="M361 298V208H60V298H361Z" />
<glyph unicode="&#xae;" glyph-name="registered" horiz-adv-x="884" d="M442 723Q526 723 597 693T722 609T804 485T834 335Q834 255 805 185T722 62T598 -22T442 -53Q358 -53 287 -23T162 61T80 185T50 335Q50 415 79 485T162 608T286 692T442 723ZM442 649Q350
649 280 609T172 499T133 335Q133 242 171 172T280 61T442 21Q535 21 604 61T712 171T751 335Q751 428 713 498T605 609T442 649ZM471 533Q505 533 536 521T588 482T609 414Q609 377 588 352T535 314T468 301Q457 301 439 302L624 136H542L372 302V136H318V533H471ZM372
483V355Q413 344 460 344Q505 344 529 363T554 414Q554 447 527 465T462 483H372Z" />
<glyph unicode="&#xaf;" glyph-name="overscore" horiz-adv-x="530" d="M440 718V638H90V718H440Z" />
<glyph unicode="&#xb0;" glyph-name="degree" horiz-adv-x="443" d="M222 685Q272 685 310 662T371 599T393 513Q393 466 371 427T311 364T222 340Q172 340 133 363T72 426T50 513Q50 560 72 599T133 661T222 685ZM222 608Q182 608 155 580T128 513Q128 473 155
445T222 416Q261 416 288 444T315 513Q315 551 288 579T222 608Z" />
<glyph unicode="&#xb1;" glyph-name="plusminus" horiz-adv-x="531" d="M310 498V378H450V288H310V167H220V288H80V378H220V498H310ZM451 90V0H80V90H451Z" />
<glyph unicode="&#xb2;" glyph-name="uni00B2" horiz-adv-x="278" d="M137 679Q178 679 207 656T236 591Q236 562 226 541T195 495T140 430H238V373H40V399Q108 476 142 515T176 579Q176 620 123 620Q101 620 82 609T49 586V648Q61 659 82 669T137 679Z" />
<glyph unicode="&#xb3;" glyph-name="uni00B3" horiz-adv-x="262" d="M119 679Q163 679 190 655T218 593Q218 562 199 546T162 524Q179 520 200 502T222 452Q222 415 194 389T120 363Q94 363 73 372T40 391V449Q52 440 70 427T112 414Q134 414 146 422T159 452Q159
473 143 484T107 495H84V545H110Q132 545 146 554T160 581Q160 599 145 610T109 621Q91 621 75 614T49 596V653Q61 664 79 671T119 679Z" />
<glyph unicode="&#xb4;" glyph-name="acute" horiz-adv-x="314" d="M294 720L152 585H70L180 720H294Z" />
<glyph unicode="&#xb5;" glyph-name="uni00B5" horiz-adv-x="564" d="M494 500V0H412V72Q393 33 357 12T277 -10Q195 -10 152 52V-240H70V500H155V204Q155 139 193 105T282 70Q332 70 370 104T409 204V500H494ZM123 152L122 154L123 151V152Z" />
<glyph unicode="&#xb6;" glyph-name="paragraph" horiz-adv-x="663" d="M553 -210H501V614H381V-210H326V292H276Q220 292 168 311T83 372T50 481Q50 550 83 591T168 651T276 670H553V-210Z" />
<glyph unicode="&#xb7;" glyph-name="middot" horiz-adv-x="300" d="M150 403Q179 403 199 383T220 333Q220 305 200 284T150 263Q121 263 101 284T80 333Q80 362 100 382T150 403Z" />
<glyph unicode="&#xb8;" glyph-name="cedilla" horiz-adv-x="353" d="M183 2L177 -70Q218 -65 245 -87T273 -147Q273 -187 244 -213T163 -240Q148 -240 125 -234T85 -215L92 -160Q108 -168 126 -174T166 -181Q183 -181 194 -172T205 -150Q205 -121 166 -121Q159
-121 150 -123T131 -130L115 -118L129 2H183Z" />
<glyph unicode="&#xb9;" glyph-name="uni00B9" horiz-adv-x="271" d="M231 428V373H40V428H109V579Q96 567 81 563T43 556V617Q76 624 96 639T129 670H169V428H231Z" />
<glyph unicode="&#xba;" glyph-name="ordmasculine" horiz-adv-x="390" d="M195 676Q240 676 275 655T330 598T350 520Q350 478 330 443T275 386T195 365Q150 365 115 386T60 442T40 520Q40 562 60 597T115 654T195 676ZM195 619Q153 619 127 592T100 520Q100
477 126 450T195 422Q236 422 262 449T289 520Q289 564 263 591T195 619Z" />
<glyph unicode="&#xbb;" glyph-name="guillemotright" horiz-adv-x="655" d="M340 468L575 273V235L340 32V137L480 254L340 363V468ZM100 468L335 273V235L100 32V137L240 254L100 363V468Z" />
<glyph unicode="&#xbc;" glyph-name="onequarter" horiz-adv-x="666" d="M231 428V373H40V428H109V579Q96 567 81 563T43 556V617Q76 624 96 639T129 670H169V428H231ZM644 670L119 0H41L563 670H644ZM550 297V119H586V66H550V0H490V66H354V80Q392 121 436 175T515
297H550ZM490 189Q481 176 475 167T460 147T436 119H490V189Z" />
<glyph unicode="&#xbd;" glyph-name="onehalf" horiz-adv-x="703" d="M260 428V373H69V428H138V579Q125 567 110 563T72 556V617Q105 624 125 639T158 670H198V428H260ZM653 670L128 0H50L572 670H653ZM547 306Q588 306 617 283T646 218Q646 189 636 168T605 122T550
57H648V0H450V26Q518 103 552 142T586 206Q586 247 533 247Q511 247 492 236T459 213V275Q471 286 492 296T547 306Z" />
<glyph unicode="&#xbe;" glyph-name="threequarters" horiz-adv-x="704" d="M129 679Q173 679 200 655T228 593Q228 562 209 546T172 524Q189 520 210 502T232 452Q232 415 204 389T130 363Q104 363 83 372T50 391V449Q62 440 80 427T122 414Q144 414 156 422T169
452Q169 473 153 484T117 495H94V545H120Q142 545 156 554T170 581Q170 599 155 610T119 621Q101 621 85 614T59 596V653Q71 664 89 671T129 679ZM654 670L129 0H51L573 670H654ZM560 297V119H596V66H560V0H500V66H364V80Q402 121 446 175T525 297H560ZM500 189Q491
176 485 167T470 147T446 119H500V189Z" />
<glyph unicode="&#xbf;" glyph-name="questiondown" horiz-adv-x="560" d="M295 -199Q235 -199 186 -174T109 -105T80 -4Q80 33 98 62T144 116T199 161T244 203T261 247L260 268H357V228Q357 206 340 186T296 145T244 103T200 58T182 9Q182 -40 213 -72T305 -104Q365
-104 404 -81T480 -11V-120Q453 -153 403 -176T295 -199ZM304 364Q275 364 255 384T234 434Q234 462 254 483T304 504Q333 504 353 483T374 434Q374 405 354 385T304 364Z" />
<glyph unicode="&#xc0;" glyph-name="Agrave" horiz-adv-x="691" d="M368 670L681 0H573L503 160H189L118 0H10L323 670H368ZM347 518L226 245H466L347 518ZM167 890H281L391 755H309L167 890Z" />
<glyph unicode="&#xc1;" glyph-name="Aacute" horiz-adv-x="691" d="M368 670L681 0H573L503 160H189L118 0H10L323 670H368ZM347 518L226 245H466L347 518ZM518 890L376 755H294L404 890H518Z" />
<glyph unicode="&#xc2;" glyph-name="Acircumflex" horiz-adv-x="691" d="M368 670L681 0H573L503 160H189L118 0H10L323 670H368ZM347 518L226 245H466L347 518ZM368 890L508 751H426L346 829L266 751H184L324 890H368Z" />
<glyph unicode="&#xc3;" glyph-name="Atilde" horiz-adv-x="691" d="M368 670L681 0H573L503 160H189L118 0H10L323 670H368ZM347 518L226 245H466L347 518ZM520 874Q520 831 491 801T416 771Q389 771 372 778T342 796T318 814T290 822Q273 822 264 809T254 776H186Q186
820 215 849T290 879Q317 879 334 872T364 854T388 836T416 828Q434 828 443 841T452 874H520Z" />
<glyph unicode="&#xc4;" glyph-name="Adieresis" horiz-adv-x="691" d="M368 670L681 0H573L503 160H189L118 0H10L323 670H368ZM347 518L226 245H466L347 518ZM451 889Q477 889 495 871T514 826Q514 801 496 782T451 763Q425 763 407 782T388 826Q388 852 406
870T451 889ZM497 1145Q523 1145 541 1127T560 1082Q560 1057 542 1038T497 1019Q471 1019 453 1038T434 1082Q434 1108 452 1126T497 1145Z" />
<glyph unicode="&#xc5;" glyph-name="Aring" horiz-adv-x="691" d="M368 670L681 0H573L503 160H189L118 0H10L323 670H368ZM347 518L226 245H466L347 518ZM346 895Q382 895 405 871T428 812Q428 778 405 754T346 729Q310 729 287 753T263 812Q263 846 286 870T346
895ZM346 854Q329 854 317 842T305 812Q305 795 317 783T346 770Q363 770 374 782T386 812Q386 829 375 841T346 854Z" />
<glyph unicode="&#xc6;" glyph-name="AE" horiz-adv-x="1082" d="M959 386V301H633V85H1002V0H543V193H265L128 0H10L503 670H1002V585H633V386H959ZM532 568L320 270H543V619L532 568Z" />
<glyph unicode="&#xc7;" glyph-name="Ccedilla" horiz-adv-x="674" d="M403 685Q476 685 522 665T604 613V514Q582 530 555 549T491 582T403 597Q328 597 269 563T176 470T142 335Q142 260 176 201T269 108T403 73Q480 73 534 98T624 151V61Q589 30 533 8T403
-15Q327 -15 263 12T151 88T77 199T50 335Q50 407 76 470T151 582T263 657T403 685ZM423 2L417 -70Q458 -65 485 -87T513 -147Q513 -187 484 -213T403 -240Q388 -240 365 -234T325 -215L332 -160Q348 -168 366 -174T406 -181Q423 -181 434 -172T445 -150Q445 -121
406 -121Q399 -121 390 -123T371 -130L355 -118L369 2H423Z" />
<glyph unicode="&#xc8;" glyph-name="Egrave" horiz-adv-x="649" d="M526 386V301H200V85H569V0H110V670H569V585H200V386H526ZM161 890H275L385 755H303L161 890Z" />
<glyph unicode="&#xc9;" glyph-name="Eacute" horiz-adv-x="649" d="M526 386V301H200V85H569V0H110V670H569V585H200V386H526ZM512 890L370 755H288L398 890H512Z" />
<glyph unicode="&#xca;" glyph-name="Ecircumflex" horiz-adv-x="649" d="M526 386V301H200V85H569V0H110V670H569V585H200V386H526ZM362 890L502 751H420L340 829L260 751H178L318 890H362Z" />
<glyph unicode="&#xcb;" glyph-name="Edieresis" horiz-adv-x="649" d="M526 386V301H200V85H569V0H110V670H569V585H200V386H526ZM445 889Q471 889 489 871T508 826Q508 801 490 782T445 763Q419 763 401 782T382 826Q382 852 400 870T445 889ZM491 1145Q517
1145 535 1127T554 1082Q554 1057 536 1038T491 1019Q465 1019 447 1038T428 1082Q428 1108 446 1126T491 1145Z" />
<glyph unicode="&#xcc;" glyph-name="Igrave" horiz-adv-x="536" d="M426 85V0H110V85H223V585H110V670H426V585H313V85H426ZM93 890H207L317 755H235L93 890Z" />
<glyph unicode="&#xcd;" glyph-name="Iacute" horiz-adv-x="536" d="M426 85V0H110V85H223V585H110V670H426V585H313V85H426ZM444 890L302 755H220L330 890H444Z" />
<glyph unicode="&#xce;" glyph-name="Icircumflex" horiz-adv-x="536" d="M426 85V0H110V85H223V585H110V670H426V585H313V85H426ZM294 890L434 751H352L272 829L192 751H110L250 890H294Z" />
<glyph unicode="&#xcf;" glyph-name="Idieresis" horiz-adv-x="536" d="M426 85V0H110V85H223V585H110V670H426V585H313V85H426ZM377 889Q403 889 421 871T440 826Q440 801 422 782T377 763Q351 763 333 782T314 826Q314 852 332 870T377 889ZM423 1145Q449 1145
467 1127T486 1082Q486 1057 468 1038T423 1019Q397 1019 379 1038T360 1082Q360 1108 378 1126T423 1145Z" />
<glyph unicode="&#xd0;" glyph-name="Eth" horiz-adv-x="759" d="M356 686Q469 686 547 640T667 516T709 338Q709 239 668 161T548 36T356 -10Q287 -10 229 -3T110 15V661Q171 672 229 679T356 686ZM356 601Q320 601 279 599T200 591V85Q238 81 279 78T356 75Q437
75 495 109T585 203T617 338Q617 413 586 472T496 566T356 601ZM569 383V293H268V383H569Z" />
<glyph unicode="&#xd1;" glyph-name="Ntilde" horiz-adv-x="779" d="M669 670V0H635L200 479V0H110V670H144L579 185V670H669ZM561 874Q561 831 532 801T457 771Q430 771 413 778T383 796T359 814T331 822Q314 822 305 809T295 776H227Q227 820 256 849T331 879Q358
879 375 872T405 854T429 836T457 828Q475 828 484 841T493 874H561Z" />
<glyph unicode="&#xd2;" glyph-name="Ograve" horiz-adv-x="806" d="M403 685Q479 685 543 658T655 582T729 471T756 335Q756 263 730 200T655 88T543 13T403 -15Q327 -15 263 12T151 88T77 199T50 335Q50 407 76 470T151 582T263 657T403 685ZM403 597Q328 597
269 563T176 470T142 335Q142 260 176 201T269 108T403 73Q478 73 537 107T630 201T664 335Q664 410 630 469T537 563T403 597ZM224 890H338L448 755H366L224 890Z" />
<glyph unicode="&#xd3;" glyph-name="Oacute" horiz-adv-x="806" d="M403 685Q479 685 543 658T655 582T729 471T756 335Q756 263 730 200T655 88T543 13T403 -15Q327 -15 263 12T151 88T77 199T50 335Q50 407 76 470T151 582T263 657T403 685ZM403 597Q328 597
269 563T176 470T142 335Q142 260 176 201T269 108T403 73Q478 73 537 107T630 201T664 335Q664 410 630 469T537 563T403 597ZM575 890L433 755H351L461 890H575Z" />
<glyph unicode="&#xd4;" glyph-name="Ocircumflex" horiz-adv-x="806" d="M403 685Q479 685 543 658T655 582T729 471T756 335Q756 263 730 200T655 88T543 13T403 -15Q327 -15 263 12T151 88T77 199T50 335Q50 407 76 470T151 582T263 657T403 685ZM403 597Q328
597 269 563T176 470T142 335Q142 260 176 201T269 108T403 73Q478 73 537 107T630 201T664 335Q664 410 630 469T537 563T403 597ZM425 890L565 751H483L403 829L323 751H241L381 890H425Z" />
<glyph unicode="&#xd5;" glyph-name="Otilde" horiz-adv-x="806" d="M403 685Q479 685 543 658T655 582T729 471T756 335Q756 263 730 200T655 88T543 13T403 -15Q327 -15 263 12T151 88T77 199T50 335Q50 407 76 470T151 582T263 657T403 685ZM403 597Q328 597
269 563T176 470T142 335Q142 260 176 201T269 108T403 73Q478 73 537 107T630 201T664 335Q664 410 630 469T537 563T403 597ZM577 874Q577 831 548 801T473 771Q446 771 429 778T399 796T375 814T347 822Q330 822 321 809T311 776H243Q243 820 272 849T347 879Q374
879 391 872T421 854T445 836T473 828Q491 828 500 841T509 874H577Z" />
<glyph unicode="&#xd6;" glyph-name="Odieresis" horiz-adv-x="806" d="M403 685Q479 685 543 658T655 582T729 471T756 335Q756 263 730 200T655 88T543 13T403 -15Q327 -15 263 12T151 88T77 199T50 335Q50 407 76 470T151 582T263 657T403 685ZM403 597Q328
597 269 563T176 470T142 335Q142 260 176 201T269 108T403 73Q478 73 537 107T630 201T664 335Q664 410 630 469T537 563T403 597ZM508 889Q534 889 552 871T571 826Q571 801 553 782T508 763Q482 763 464 782T445 826Q445 852 463 870T508 889ZM554 1145Q580
1145 598 1127T617 1082Q617 1057 599 1038T554 1019Q528 1019 510 1038T491 1082Q491 1108 509 1126T554 1145Z" />
<glyph unicode="&#xd7;" glyph-name="multiply" horiz-adv-x="500" d="M144 483L250 377L356 483L420 419L314 313L420 207L356 143L250 249L144 142L80 206L187 313L81 419L144 483Z" />
<glyph unicode="&#xd8;" glyph-name="Oslash" horiz-adv-x="806" d="M403 685Q460 685 510 670T603 625L650 685L702 645L653 584Q701 536 728 472T756 335Q756 263 730 200T655 88T543 13T403 -15Q350 -15 303 -2T215 37L174 -15L125 25L165 75Q111 123 81 190T50
335Q50 407 76 470T151 582T263 657T403 685ZM403 597Q328 597 269 563T176 470T142 335Q142 277 162 228T220 144L548 556Q517 576 481 586T403 597ZM664 335Q664 388 647 434T597 514L271 106Q331 73 403 73Q478 73 537 107T630 201T664 335Z" />
<glyph unicode="&#xd9;" glyph-name="Ugrave" horiz-adv-x="752" d="M652 672V265Q652 178 616 116T517 20T376 -13Q298 -13 236 20T137 115T100 265V672H190V268Q190 200 215 158T283 98T376 79Q426 80 468 98T536 158T562 268V672H652ZM197 890H311L421 755H339L197
890Z" />
<glyph unicode="&#xda;" glyph-name="Uacute" horiz-adv-x="752" d="M652 672V265Q652 178 616 116T517 20T376 -13Q298 -13 236 20T137 115T100 265V672H190V268Q190 200 215 158T283 98T376 79Q426 80 468 98T536 158T562 268V672H652ZM548 890L406 755H324L434
890H548Z" />
<glyph unicode="&#xdb;" glyph-name="Ucircumflex" horiz-adv-x="752" d="M652 672V265Q652 178 616 116T517 20T376 -13Q298 -13 236 20T137 115T100 265V672H190V268Q190 200 215 158T283 98T376 79Q426 80 468 98T536 158T562 268V672H652ZM398 890L538 751H456L376
829L296 751H214L354 890H398Z" />
<glyph unicode="&#xdc;" glyph-name="Udieresis" horiz-adv-x="752" d="M652 672V265Q652 178 616 116T517 20T376 -13Q298 -13 236 20T137 115T100 265V672H190V268Q190 200 215 158T283 98T376 79Q426 80 468 98T536 158T562 268V672H652ZM481 889Q507 889 525
871T544 826Q544 801 526 782T481 763Q455 763 437 782T418 826Q418 852 436 870T481 889ZM527 1145Q553 1145 571 1127T590 1082Q590 1057 572 1038T527 1019Q501 1019 483 1038T464 1082Q464 1108 482 1126T527 1145Z" />
<glyph unicode="&#xdd;" glyph-name="Yacute" horiz-adv-x="631" d="M621 670L364 275V0H267V262L10 670H118L314 354L513 670H621ZM488 890L346 755H264L374 890H488Z" />
<glyph unicode="&#xde;" glyph-name="Thorn" horiz-adv-x="634" d="M207 670V550H358Q416 550 467 526T551 457T584 352Q584 297 558 251T481 176T359 148Q315 148 279 154T207 172V0H110V670H207ZM333 460H207V263Q239 246 279 240T353 233Q421 233 451 267T482
352Q482 402 440 431T333 460Z" />
<glyph unicode="&#xdf;" glyph-name="germandbls" horiz-adv-x="648" d="M264 725Q310 725 352 707T422 650T450 552Q450 513 437 488T407 445T376 410T363 369Q363 349 377 336T411 314T449 295L506 266Q553 242 580 210T608 135Q608 88 582 56T516 7T429 -10Q382
-10 345 3T281 35V122Q310 100 346 85T429 70Q470 70 498 87T527 136Q527 155 510 170T473 197T446 211L375 240Q334 257 308 287T282 360Q282 393 295 418T325 466T356 509T369 556Q369 584 354 604T316 636T269 647Q245 647 222 638T183 604T167 535V0H85V544Q85
611 112 650T180 707T264 725Z" />
<glyph unicode="&#xe0;" glyph-name="agrave" horiz-adv-x="622" d="M291 510Q334 510 378 490T455 433V500H537V0H455V85Q429 45 385 15T283 -15Q219 -15 166 17T82 108T50 242Q50 325 81 385T168 477T291 510ZM306 430Q252 430 214 403T156 334T135 242Q135
194 155 154T211 89T296 65Q342 65 378 89T435 155T455 251L454 347Q423 386 388 408T306 430ZM132 720H246L356 585H274L132 720Z" />
<glyph unicode="&#xe1;" glyph-name="aacute" horiz-adv-x="622" d="M291 510Q334 510 378 490T455 433V500H537V0H455V85Q429 45 385 15T283 -15Q219 -15 166 17T82 108T50 242Q50 325 81 385T168 477T291 510ZM306 430Q252 430 214 403T156 334T135 242Q135
194 155 154T211 89T296 65Q342 65 378 89T435 155T455 251L454 347Q423 386 388 408T306 430ZM483 720L341 585H259L369 720H483Z" />
<glyph unicode="&#xe2;" glyph-name="acircumflex" horiz-adv-x="622" d="M291 510Q334 510 378 490T455 433V500H537V0H455V85Q429 45 385 15T283 -15Q219 -15 166 17T82 108T50 242Q50 325 81 385T168 477T291 510ZM306 430Q252 430 214 403T156 334T135 242Q135
194 155 154T211 89T296 65Q342 65 378 89T435 155T455 251L454 347Q423 386 388 408T306 430ZM333 720L473 581H391L311 659L231 581H149L289 720H333Z" />
<glyph unicode="&#xe3;" glyph-name="atilde" horiz-adv-x="622" d="M291 510Q334 510 378 490T455 433V500H537V0H455V85Q429 45 385 15T283 -15Q219 -15 166 17T82 108T50 242Q50 325 81 385T168 477T291 510ZM306 430Q252 430 214 403T156 334T135 242Q135
194 155 154T211 89T296 65Q342 65 378 89T435 155T455 251L454 347Q423 386 388 408T306 430ZM485 960Q485 917 456 887T381 857Q354 857 337 864T307 882T283 900T255 908Q238 908 229 895T219 862H151Q151 906 180 935T255 965Q282 965 299 958T329 940T353
922T381 914Q399 914 408 927T417 960H485Z" />
<glyph unicode="&#xe4;" glyph-name="adieresis" horiz-adv-x="622" d="M291 510Q334 510 378 490T455 433V500H537V0H455V85Q429 45 385 15T283 -15Q219 -15 166 17T82 108T50 242Q50 325 81 385T168 477T291 510ZM306 430Q252 430 214 403T156 334T135 242Q135
194 155 154T211 89T296 65Q342 65 378 89T435 155T455 251L454 347Q423 386 388 408T306 430ZM416 719Q442 719 460 701T479 656Q479 631 461 612T416 593Q390 593 372 612T353 656Q353 682 371 700T416 719ZM462 975Q488 975 506 957T525 912Q525 887 507 868T462
849Q436 849 418 868T399 912Q399 938 417 956T462 975Z" />
<glyph unicode="&#xe5;" glyph-name="aring" horiz-adv-x="622" d="M291 510Q334 510 378 490T455 433V500H537V0H455V85Q429 45 385 15T283 -15Q219 -15 166 17T82 108T50 242Q50 325 81 385T168 477T291 510ZM306 430Q252 430 214 403T156 334T135 242Q135 194
155 154T211 89T296 65Q342 65 378 89T435 155T455 251L454 347Q423 386 388 408T306 430ZM311 725Q347 725 370 701T393 642Q393 608 370 584T311 559Q275 559 252 583T228 642Q228 676 251 700T311 725ZM311 684Q294 684 282 672T270 642Q270 625 282 613T311
600Q328 600 339 612T351 642Q351 659 340 671T311 684Z" />
<glyph unicode="&#xe6;" glyph-name="ae" horiz-adv-x="987" d="M707 510Q784 510 835 478T911 391T937 267V218H553Q559 176 582 141T642 86T727 65Q781 65 828 92T907 153L906 64Q892 47 865 29T802 -2T727 -15Q651 -15 592 21T500 116T466 247Q466 318 497
378T582 474T707 510ZM707 430Q645 430 605 389T555 288H856Q851 337 829 368T774 414T707 430ZM291 510Q334 510 378 490T455 433V500H537V0H455V85Q429 45 385 15T283 -15Q219 -15 166 17T82 108T50 242Q50 325 81 385T168 477T291 510ZM306 430Q252 430 214
403T156 334T135 242Q135 194 155 154T211 89T296 65Q342 65 378 89T435 155T455 251L454 347Q423 386 388 408T306 430Z" />
<glyph unicode="&#xe7;" glyph-name="ccedilla" horiz-adv-x="511" d="M311 510Q366 510 406 493T461 461V378Q433 399 397 414T311 430Q258 430 218 405T157 338T135 247Q135 199 156 158T218 91T311 65Q361 65 397 80T461 117V34Q446 19 406 2T311 -15Q235 -15
176 21T84 116T50 247Q50 318 83 378T176 474T311 510ZM319 2L313 -70Q354 -65 381 -87T409 -147Q409 -187 380 -213T299 -240Q284 -240 261 -234T221 -215L228 -160Q244 -168 262 -174T302 -181Q319 -181 330 -172T341 -150Q341 -121 302 -121Q295 -121 286 -123T267
-130L251 -118L265 2H319Z" />
<glyph unicode="&#xe8;" glyph-name="egrave" horiz-adv-x="571" d="M291 510Q368 510 419 478T495 391T521 267V218H137Q143 176 166 141T226 86T311 65Q365 65 412 92T491 153L490 64Q476 47 449 29T386 -2T311 -15Q235 -15 176 21T84 116T50 247Q50 318 81
378T166 474T291 510ZM291 430Q229 430 189 389T139 288H440Q435 337 413 368T358 414T291 430ZM117 720H231L341 585H259L117 720Z" />
<glyph unicode="&#xe9;" glyph-name="eacute" horiz-adv-x="571" d="M291 510Q368 510 419 478T495 391T521 267V218H137Q143 176 166 141T226 86T311 65Q365 65 412 92T491 153L490 64Q476 47 449 29T386 -2T311 -15Q235 -15 176 21T84 116T50 247Q50 318 81
378T166 474T291 510ZM291 430Q229 430 189 389T139 288H440Q435 337 413 368T358 414T291 430ZM468 720L326 585H244L354 720H468Z" />
<glyph unicode="&#xea;" glyph-name="ecircumflex" horiz-adv-x="571" d="M291 510Q368 510 419 478T495 391T521 267V218H137Q143 176 166 141T226 86T311 65Q365 65 412 92T491 153L490 64Q476 47 449 29T386 -2T311 -15Q235 -15 176 21T84 116T50 247Q50 318
81 378T166 474T291 510ZM291 430Q229 430 189 389T139 288H440Q435 337 413 368T358 414T291 430ZM318 720L458 581H376L296 659L216 581H134L274 720H318Z" />
<glyph unicode="&#xeb;" glyph-name="edieresis" horiz-adv-x="571" d="M291 510Q368 510 419 478T495 391T521 267V218H137Q143 176 166 141T226 86T311 65Q365 65 412 92T491 153L490 64Q476 47 449 29T386 -2T311 -15Q235 -15 176 21T84 116T50 247Q50 318
81 378T166 474T291 510ZM291 430Q229 430 189 389T139 288H440Q435 337 413 368T358 414T291 430ZM401 719Q427 719 445 701T464 656Q464 631 446 612T401 593Q375 593 357 612T338 656Q338 682 356 700T401 719ZM447 975Q473 975 491 957T510 912Q510 887 492
868T447 849Q421 849 403 868T384 912Q384 938 402 956T447 975Z" />
<glyph unicode="&#xec;" glyph-name="igrave" horiz-adv-x="301" d="M216 500V0H134V423H55V500H216ZM252 720H366L476 585H394L252 720Z" />
<glyph unicode="&#xed;" glyph-name="iacute" horiz-adv-x="301" d="M216 500V0H134V423H55V500H216ZM347 720L205 585H123L233 720H347Z" />
<glyph unicode="&#xee;" glyph-name="icircumflex" horiz-adv-x="299" d="M430 720L570 581H488L408 659L328 581H246L386 720H430ZM242 500V0H160V423H81V500H242Z" />
<glyph unicode="&#xef;" glyph-name="idieresis" horiz-adv-x="301" d="M216 500V0H134V423H55V500H216ZM536 719Q562 719 580 701T599 656Q599 631 581 612T536 593Q510 593 492 612T473 656Q473 682 491 700T536 719ZM582 975Q608 975 626 957T645 912Q645 887
627 868T582 849Q556 849 538 868T519 912Q519 938 537 956T582 975Z" />
<glyph unicode="&#xf0;" glyph-name="eth" horiz-adv-x="617" d="M333 710Q376 676 411 640L510 682L531 628L452 594Q511 522 539 442T567 276Q567 196 535 130T445 24T311 -15Q235 -15 176 21T84 116T50 247Q50 318 83 378T176 474T311 510Q357 510 400 488T483
416Q470 456 446 495T391 568L292 526L271 580L348 613Q321 639 293 659L333 710ZM311 430Q258 430 218 405T157 338T135 247Q135 199 156 158T218 91T311 65Q365 65 404 90T465 157T487 247Q487 296 466 337T405 404T311 430Z" />
<glyph unicode="&#xf1;" glyph-name="ntilde" horiz-adv-x="585" d="M167 500V421Q183 441 208 461T264 496T330 510Q381 510 423 488T490 420T515 305V0H433L432 297Q432 362 404 396T316 430Q276 430 237 401T167 332V0H85V500H167ZM480 960Q480 917 451 887T376
857Q349 857 332 864T302 882T278 900T250 908Q233 908 224 895T214 862H146Q146 906 175 935T250 965Q277 965 294 958T324 940T348 922T376 914Q394 914 403 927T412 960H480Z" />
<glyph unicode="&#xf2;" glyph-name="ograve" horiz-adv-x="622" d="M311 510Q387 510 446 474T538 378T572 247Q572 176 539 117T446 21T311 -15Q235 -15 176 21T84 116T50 247Q50 318 83 378T176 474T311 510ZM311 430Q258 430 218 405T157 338T135 247Q135
199 156 158T218 91T311 65Q365 65 404 90T465 157T487 247Q487 296 466 337T405 404T311 430ZM132 720H246L356 585H274L132 720Z" />
<glyph unicode="&#xf3;" glyph-name="oacute" horiz-adv-x="622" d="M311 510Q387 510 446 474T538 378T572 247Q572 176 539 117T446 21T311 -15Q235 -15 176 21T84 116T50 247Q50 318 83 378T176 474T311 510ZM311 430Q258 430 218 405T157 338T135 247Q135
199 156 158T218 91T311 65Q365 65 404 90T465 157T487 247Q487 296 466 337T405 404T311 430ZM483 720L341 585H259L369 720H483Z" />
<glyph unicode="&#xf4;" glyph-name="ocircumflex" horiz-adv-x="622" d="M311 510Q387 510 446 474T538 378T572 247Q572 176 539 117T446 21T311 -15Q235 -15 176 21T84 116T50 247Q50 318 83 378T176 474T311 510ZM311 430Q258 430 218 405T157 338T135 247Q135
199 156 158T218 91T311 65Q365 65 404 90T465 157T487 247Q487 296 466 337T405 404T311 430ZM333 720L473 581H391L311 659L231 581H149L289 720H333Z" />
<glyph unicode="&#xf5;" glyph-name="otilde" horiz-adv-x="622" d="M311 510Q387 510 446 474T538 378T572 247Q572 176 539 117T446 21T311 -15Q235 -15 176 21T84 116T50 247Q50 318 83 378T176 474T311 510ZM311 430Q258 430 218 405T157 338T135 247Q135
199 156 158T218 91T311 65Q365 65 404 90T465 157T487 247Q487 296 466 337T405 404T311 430ZM485 960Q485 917 456 887T381 857Q354 857 337 864T307 882T283 900T255 908Q238 908 229 895T219 862H151Q151 906 180 935T255 965Q282 965 299 958T329 940T353
922T381 914Q399 914 408 927T417 960H485Z" />
<glyph unicode="&#xf6;" glyph-name="odieresis" horiz-adv-x="622" d="M311 510Q387 510 446 474T538 378T572 247Q572 176 539 117T446 21T311 -15Q235 -15 176 21T84 116T50 247Q50 318 83 378T176 474T311 510ZM311 430Q258 430 218 405T157 338T135 247Q135
199 156 158T218 91T311 65Q365 65 404 90T465 157T487 247Q487 296 466 337T405 404T311 430ZM416 719Q442 719 460 701T479 656Q479 631 461 612T416 593Q390 593 372 612T353 656Q353 682 371 700T416 719ZM462 975Q488 975 506 957T525 912Q525 887 507 868T462
849Q436 849 418 868T399 912Q399 938 417 956T462 975Z" />
<glyph unicode="&#xf7;" glyph-name="divide" horiz-adv-x="551" d="M276 557Q302 557 320 539T339 494Q339 469 321 450T276 431Q250 431 232 450T213 494Q213 520 231 538T276 557ZM471 358V268H80V358H471ZM276 193Q302 193 320 175T339 130Q339 105 321 86T276
67Q250 67 232 86T213 130Q213 156 231 174T276 193Z" />
<glyph unicode="&#xf8;" glyph-name="oslash" horiz-adv-x="612" d="M311 510Q354 510 391 498T460 464L503 510L555 470L508 421Q539 386 555 341T572 247Q572 176 539 117T446 21T311 -15Q264 -15 223 -1T148 40L96 -15L47 25L104 86Q78 119 64 160T50 247Q50
318 83 378T176 474T311 510ZM311 430Q258 430 218 405T157 338T135 247Q135 192 162 147L404 404Q363 430 311 430ZM487 247Q487 311 451 360L205 100Q226 83 253 74T311 65Q365 65 404 90T465 157T487 247Z" />
<glyph unicode="&#xf9;" glyph-name="ugrave" horiz-adv-x="564" d="M494 500V204Q494 138 466 90T390 16T282 -10Q222 -10 174 16T98 90T70 204V500H155V204Q155 139 193 105T282 70Q332 70 370 104T409 204V500H494ZM108 720H222L332 585H250L108 720Z" />
<glyph unicode="&#xfa;" glyph-name="uacute" horiz-adv-x="564" d="M494 500V204Q494 138 466 90T390 16T282 -10Q222 -10 174 16T98 90T70 204V500H155V204Q155 139 193 105T282 70Q332 70 370 104T409 204V500H494ZM459 720L317 585H235L345 720H459Z" />
<glyph unicode="&#xfb;" glyph-name="ucircumflex" horiz-adv-x="564" d="M494 500V204Q494 138 466 90T390 16T282 -10Q222 -10 174 16T98 90T70 204V500H155V204Q155 139 193 105T282 70Q332 70 370 104T409 204V500H494ZM309 720L449 581H367L287 659L207 581H125L265
720H309Z" />
<glyph unicode="&#xfc;" glyph-name="udieresis" horiz-adv-x="564" d="M494 500V204Q494 138 466 90T390 16T282 -10Q222 -10 174 16T98 90T70 204V500H155V204Q155 139 193 105T282 70Q332 70 370 104T409 204V500H494ZM392 719Q418 719 436 701T455 656Q455
631 437 612T392 593Q366 593 348 612T329 656Q329 682 347 700T392 719ZM438 975Q464 975 482 957T501 912Q501 887 483 868T438 849Q412 849 394 868T375 912Q375 938 393 956T438 975Z" />
<glyph unicode="&#xfd;" glyph-name="yacute" horiz-adv-x="571" d="M113 500L288 132L458 500H556L188 -240H93L236 30L15 500H113ZM457 720L315 585H233L343 720H457Z" />
<glyph unicode="&#xfe;" glyph-name="thorn" horiz-adv-x="622" d="M85 720H167V415Q193 455 237 482T339 510Q404 510 456 479T540 391T572 258Q572 176 541 116T455 23T331 -10Q288 -10 244 10T167 67V-240H85V720ZM326 429Q281 429 245 407T188 344T167 249L168
153Q200 114 235 93T316 71Q370 71 408 97T466 167T487 258Q487 307 467 345T411 406T326 429Z" />
<glyph unicode="&#xff;" glyph-name="ydieresis" horiz-adv-x="571" d="M113 500L288 132L458 500H556L188 -240H93L236 30L15 500H113ZM390 719Q416 719 434 701T453 656Q453 631 435 612T390 593Q364 593 346 612T327 656Q327 682 345 700T390 719ZM436 975Q462
975 480 957T499 912Q499 887 481 868T436 849Q410 849 392 868T373 912Q373 938 391 956T436 975Z" />
<glyph unicode="&#x2013;" glyph-name="endash" horiz-adv-x="610" d="M550 298V208H60V298H550Z" />
<glyph unicode="&#x2014;" glyph-name="emdash" horiz-adv-x="888" d="M828 298V208H60V298H828Z" />
<glyph unicode="&#x2018;" glyph-name="quoteleft" horiz-adv-x="232" d="M150 688L212 672L122 403L40 431L150 688Z" />
<glyph unicode="&#x2019;" glyph-name="quoteright" horiz-adv-x="212" d="M110 688L192 660L82 403L20 419L110 688Z" />
<glyph unicode="&#x201a;" glyph-name="quotesinglbase" horiz-adv-x="312" d="M120 118L202 90L112 -177L50 -161L120 118Z" />
<glyph unicode="&#x201c;" glyph-name="quotedblleft" horiz-adv-x="432" d="M150 718L212 702L122 433L40 461L150 718ZM330 718L392 702L302 433L220 461L330 718Z" />
<glyph unicode="&#x201d;" glyph-name="quotedblright" horiz-adv-x="432" d="M282 427L220 443L310 712L392 684L282 427ZM102 427L40 443L130 712L212 684L102 427Z" />
<glyph unicode="&#x201e;" glyph-name="quotedblbase" horiz-adv-x="432" d="M282 -166L220 -150L310 119L392 91L282 -166ZM102 -166L40 -150L130 119L212 91L102 -166Z" />
<glyph unicode="&#x2022;" glyph-name="bullet" horiz-adv-x="423" d="M211 435Q247 435 277 417T325 370T343 303Q343 268 325 238T277 190T211 172Q175 172 145 190T98 238T80 303Q80 340 97 369T145 417T211 435Z" />
<glyph unicode="&#x2039;" glyph-name="guilsinglleft" horiz-adv-x="415" d="M315 32L80 227V265L315 468V363L175 246L315 137V32Z" />
<glyph unicode="&#x203a;" glyph-name="guilsinglright" horiz-adv-x="405" d="M100 468L335 273V235L100 32V137L240 254L100 363V468Z" />
</font>
</defs>
</svg>
