<svg id="visual" viewBox="0 0 960 540" width="960" height="540" xmlns="http://www.w3.org/2000/svg" xmlns:xlink="http://www.w3.org/1999/xlink" version="1.1"><path d="M0 44L32 52.2C64 60.3 128 76.7 192 92C256 107.3 320 121.7 384 114.5C448 107.3 512 78.7 576 63.3C640 48 704 46 768 54C832 62 896 80 928 89L960 98L960 0L928 0C896 0 832 0 768 0C704 0 640 0 576 0C512 0 448 0 384 0C320 0 256 0 192 0C128 0 64 0 32 0L0 0Z" fill="#7a5ff3"></path><path d="M0 87L32 97.8C64 108.7 128 130.3 192 142.2C256 154 320 156 384 148.8C448 141.7 512 125.3 576 112.7C640 100 704 91 768 93.7C832 96.3 896 110.7 928 117.8L960 125L960 96L928 87C896 78 832 60 768 52C704 44 640 46 576 61.3C512 76.7 448 105.3 384 112.5C320 119.7 256 105.3 192 90C128 74.7 64 58.3 32 50.2L0 42Z" fill="#9045bb"></path><path d="M0 147L32 161.3C64 175.7 128 204.3 192 223.2C256 242 320 251 384 243.8C448 236.7 512 213.3 576 190.8C640 168.3 704 146.7 768 152C832 157.3 896 189.7 928 205.8L960 222L960 123L928 115.8C896 108.7 832 94.3 768 91.7C704 89 640 98 576 110.7C512 123.3 448 139.7 384 146.8C320 154 256 152 192 140.2C128 128.3 64 106.7 32 95.8L0 85Z" fill="#8c3389"></path><path d="M0 174L32 193.8C64 213.7 128 253.3 192 273.2C256 293 320 293 384 279.5C448 266 512 239 576 220C640 201 704 190 768 204.3C832 218.7 896 258.3 928 278.2L960 298L960 220L928 203.8C896 187.7 832 155.3 768 150C704 144.7 640 166.3 576 188.8C512 211.3 448 234.7 384 241.8C320 249 256 240 192 221.2C128 202.3 64 173.7 32 159.3L0 145Z" fill="#7a2a5f"></path><path d="M0 244L32 262.8C64 281.7 128 319.3 192 331C256 342.7 320 328.3 384 314.8C448 301.3 512 288.7 576 272.5C640 256.3 704 236.7 768 244.8C832 253 896 289 928 307L960 325L960 296L928 276.2C896 256.3 832 216.7 768 202.3C704 188 640 199 576 218C512 237 448 264 384 277.5C320 291 256 291 192 271.2C128 251.3 64 211.7 32 191.8L0 172Z" fill="#5f273f"></path><path d="M0 309L32 326C64 343 128 377 192 390.5C256 404 320 397 384 398C448 399 512 408 576 409.8C640 411.7 704 406.3 768 401.8C832 397.3 896 393.7 928 391.8L960 390L960 323L928 305C896 287 832 251 768 242.8C704 234.7 640 254.3 576 270.5C512 286.7 448 299.3 384 312.8C320 326.3 256 340.7 192 329C128 317.3 64 279.7 32 260.8L0 242Z" fill="#40242a"></path><path d="M0 541L32 541C64 541 128 541 192 541C256 541 320 541 384 541C448 541 512 541 576 541C640 541 704 541 768 541C832 541 896 541 928 541L960 541L960 388L928 389.8C896 391.7 832 395.3 768 399.8C704 404.3 640 409.7 576 407.8C512 406 448 397 384 396C320 395 256 402 192 388.5C128 375 64 341 32 324L0 307Z" fill="#1f1e1e"></path></svg>