<svg id="visual" viewBox="0 0 960 540" width="960" height="540" xmlns="http://www.w3.org/2000/svg" xmlns:xlink="http://www.w3.org/1999/xlink" version="1.1"><path d="M0 82L14.5 97.3C29 112.7 58 143.3 87.2 152.3C116.3 161.3 145.7 148.7 174.8 153.2C204 157.7 233 179.3 262 168.5C291 157.7 320 114.3 349 97.2C378 80 407 89 436.2 92.7C465.3 96.3 494.7 94.7 523.8 89.3C553 84 582 75 611 87.5C640 100 669 134 698 154.7C727 175.3 756 182.7 785.2 178.2C814.3 173.7 843.7 157.3 872.8 156.5C902 155.7 931 170.3 945.5 177.7L960 185L960 0L945.5 0C931 0 902 0 872.8 0C843.7 0 814.3 0 785.2 0C756 0 727 0 698 0C669 0 640 0 611 0C582 0 553 0 523.8 0C494.7 0 465.3 0 436.2 0C407 0 378 0 349 0C320 0 291 0 262 0C233 0 204 0 174.8 0C145.7 0 116.3 0 87.2 0C58 0 29 0 14.5 0L0 0Z" fill="#1f1e1e"></path><path d="M0 287L14.5 280.7C29 274.3 58 261.7 87.2 257.2C116.3 252.7 145.7 256.3 174.8 260.8C204 265.3 233 270.7 262 260.8C291 251 320 226 349 218.8C378 211.7 407 222.3 436.2 236.7C465.3 251 494.7 269 523.8 279.8C553 290.7 582 294.3 611 298.8C640 303.3 669 308.7 698 306.8C727 305 756 296 785.2 297.8C814.3 299.7 843.7 312.3 872.8 310.5C902 308.7 931 292.3 945.5 284.2L960 276L960 183L945.5 175.7C931 168.3 902 153.7 872.8 154.5C843.7 155.3 814.3 171.7 785.2 176.2C756 180.7 727 173.3 698 152.7C669 132 640 98 611 85.5C582 73 553 82 523.8 87.3C494.7 92.7 465.3 94.3 436.2 90.7C407 87 378 78 349 95.2C320 112.3 291 155.7 262 166.5C233 177.3 204 155.7 174.8 151.2C145.7 146.7 116.3 159.3 87.2 150.3C58 141.3 29 110.7 14.5 95.3L0 80Z" fill="#47242d"></path><path d="M0 314L14.5 313.2C29 312.3 58 310.7 87.2 316.2C116.3 321.7 145.7 334.3 174.8 334.3C204 334.3 233 321.7 262 313.5C291 305.3 320 301.7 349 299.8C378 298 407 298 436.2 301.7C465.3 305.3 494.7 312.7 523.8 326.2C553 339.7 582 359.3 611 371C640 382.7 669 386.3 698 375.5C727 364.7 756 339.3 785.2 335.7C814.3 332 843.7 350 872.8 349.2C902 348.3 931 328.7 945.5 318.8L960 309L960 274L945.5 282.2C931 290.3 902 306.7 872.8 308.5C843.7 310.3 814.3 297.7 785.2 295.8C756 294 727 303 698 304.8C669 306.7 640 301.3 611 296.8C582 292.3 553 288.7 523.8 277.8C494.7 267 465.3 249 436.2 234.7C407 220.3 378 209.7 349 216.8C320 224 291 249 262 258.8C233 268.7 204 263.3 174.8 258.8C145.7 254.3 116.3 250.7 87.2 255.2C58 259.7 29 272.3 14.5 278.7L0 285Z" fill="#6b284b"></path><path d="M0 357L14.5 360.7C29 364.3 58 371.7 87.2 378C116.3 384.3 145.7 389.7 174.8 390.5C204 391.3 233 387.7 262 382.3C291 377 320 370 349 370C378 370 407 377 436.2 383.3C465.3 389.7 494.7 395.3 523.8 398.2C553 401 582 401 611 410C640 419 669 437 698 433.3C727 429.7 756 404.3 785.2 393.5C814.3 382.7 843.7 386.3 872.8 381C902 375.7 931 361.3 945.5 354.2L960 347L960 307L945.5 316.8C931 326.7 902 346.3 872.8 347.2C843.7 348 814.3 330 785.2 333.7C756 337.3 727 362.7 698 373.5C669 384.3 640 380.7 611 369C582 357.3 553 337.7 523.8 324.2C494.7 310.7 465.3 303.3 436.2 299.7C407 296 378 296 349 297.8C320 299.7 291 303.3 262 311.5C233 319.7 204 332.3 174.8 332.3C145.7 332.3 116.3 319.7 87.2 314.2C58 308.7 29 310.3 14.5 311.2L0 312Z" fill="#862e77"></path><path d="M0 492L14.5 494.8C29 497.7 58 503.3 87.2 504.3C116.3 505.3 145.7 501.7 174.8 495.3C204 489 233 480 262 478.2C291 476.3 320 481.7 349 481.7C378 481.7 407 476.3 436.2 476.3C465.3 476.3 494.7 481.7 523.8 480.7C553 479.7 582 472.3 611 475C640 477.7 669 490.3 698 497.7C727 505 756 507 785.2 509.7C814.3 512.3 843.7 515.7 872.8 515.7C902 515.7 931 512.3 945.5 510.7L960 509L960 345L945.5 352.2C931 359.3 902 373.7 872.8 379C843.7 384.3 814.3 380.7 785.2 391.5C756 402.3 727 427.7 698 431.3C669 435 640 417 611 408C582 399 553 399 523.8 396.2C494.7 393.3 465.3 387.7 436.2 381.3C407 375 378 368 349 368C320 368 291 375 262 380.3C233 385.7 204 389.3 174.8 388.5C145.7 387.7 116.3 382.3 87.2 376C58 369.7 29 362.3 14.5 358.7L0 355Z" fill="#9141b0"></path><path d="M0 541L14.5 541C29 541 58 541 87.2 541C116.3 541 145.7 541 174.8 541C204 541 233 541 262 541C291 541 320 541 349 541C378 541 407 541 436.2 541C465.3 541 494.7 541 523.8 541C553 541 582 541 611 541C640 541 669 541 698 541C727 541 756 541 785.2 541C814.3 541 843.7 541 872.8 541C902 541 931 541 945.5 541L960 541L960 507L945.5 508.7C931 510.3 902 513.7 872.8 513.7C843.7 513.7 814.3 510.3 785.2 507.7C756 505 727 503 698 495.7C669 488.3 640 475.7 611 473C582 470.3 553 477.7 523.8 478.7C494.7 479.7 465.3 474.3 436.2 474.3C407 474.3 378 479.7 349 479.7C320 479.7 291 474.3 262 476.2C233 478 204 487 174.8 493.3C145.7 499.7 116.3 503.3 87.2 502.3C58 501.3 29 495.7 14.5 492.8L0 490Z" fill="#7a5ff3"></path></svg>